<?xml version="1.0" encoding="UTF-8"?>
<svg version="1.1" viewBox="0 0 1897 2048" width="177" height="191" xmlns="http://www.w3.org/2000/svg">
<path transform="translate(11,1104)" d="m0 0h565l4 2 2 10 4 28 5 24 8 26 10 27 11 24 13 22 14 20 10 13 12 13 11 12 9 9 8 7 11 10 16 12 18 12 24 14 27 13 24 9 18 6 24 6 22 4 33 3h39l29-3 26-5 20-5 35-12 23-10 26-14 22-14 16-12 11-9 12-11h2l1-3 8-7 7-8 12-13 12-15 10-14 12-19 14-27 11-27 8-25 7-29 4-24 2-16 2-3 26-1h585l1 1v173l-3 1-210 1-7 23-12 38-13 34-11 25-11 24-10 20-12 22-11 20-3 5 4 6 8 7 82 82 8 7 42 42 6 9-5 5-13 12-61 61-1 2h-2v2l-7 6-2 3h-2v2l-5 5-3 1-2 4-3 1-2 4-7 7h-2l-2 4-28 28h-2l-1 3h-2l-2 4-5 4-1 2h-2l-1 3h-2l-1 3-8 7-7 7-8 7-27 27-8 7-11 12-3 3-10-8-6-7-8-7-58-58-8-7-34-34-8-7-13-13-4-5-4-1-21 13-27 15-27 14-24 11-37 15-37 13-28 9-39 11-5 2v87l-1 125h-341l-1-25-1-185-21-6-31-9-32-10-35-13-36-15-30-14-21-11-28-17-9-5-4 2-16 16-7 6-7 8-90 90-8 7-20 20-7-4-7-7-8-7-17-16-146-146v-2l-4-2-39-39-7-8-6-6 1-5 18-18 7-6 1-2h2v-2l7-6 4-5 6-5 5-6 5-4 6-7 5-5 16-15 10-9 7-6 4-5 7-6 4-5h2v-2l8-7 24-24-1-6-10-15-11-19-14-27-15-30-14-33-11-30-13-40-5-17-1-4h-173v-173z" fill="#1E2B51"/>
<path transform="translate(1171,118)" d="m0 0 21 5 44 12 42 14 31 12 23 10 31 14 16 8 27 14 23 13 25 15 14 10 4 5 1 446 2 13 5 10 7 8 10 6 9 3 18 2h13l18-2 12-4 11-7 7-9 4-10 2-9 1-19v-336l5 2 12 11 26 26 2 1v2l3 1 7 8 16 16 9 11 13 15 13 17 11 14 12 16 22 32 13 20 13 21 10 18 13 24 12 23 17 37 16 39 16 47 10 35 11 44 9 46 6 43 5 52 2 29 1 8v18h-1888v-35l3-44 5-48 6-37 9-43 9-36 9-30 15-44 11-28 14-32 9-19 10-19 12-24 13-22 8-13 13-22 13-19 12-16 12-17 11-14 9-11 10-13 12-14 12-13 7-8 9-10 17-17 7-8 14-14 7-8 4-2 1 5v327l1 31 2 10 4 8 4 5 14 8 12 4 18 2h12l13-1 13-4 10-6 6-5 6-9 2-9 1-17v-438l8-7 27-16 17-10 24-13 19-10 24-12 36-16 27-11 30-11 35-11 40-11 8-2h8l1 53v156l1 413 3 12 4 6 10 9 11 5 8 2 11 1h347l11-2 13-7 6-7 6-11 2-9 1-14 1-596 1-11z" fill="#FCB04C"/>
<path transform="translate(889,10)" d="m0 0h139l23 1 10 2 6 4 7 9 5 10 1 6 1 230v274l-1 114-1 13-4 8-12 13-5 1-25 1h-181l-9-2-8-7-9-12-2-7-1-19v-603l1-12 4-8 7-8 9-5 4-1z" fill="#FDB14C"/>
</svg>
