<?xml version="1.0" standalone="no"?>
<!DOCTYPE svg PUBLIC "-//W3C//DTD SVG 20010904//EN"
 "http://www.w3.org/TR/2001/REC-SVG-20010904/DTD/svg10.dtd">
<svg version="1.0" xmlns="http://www.w3.org/2000/svg"
 width="847.000000pt" height="580.000000pt" viewBox="0 0 847.000000 580.000000"
 preserveAspectRatio="xMidYMid meet">

<g transform="translate(0.000000,580.000000) scale(0.100000,-0.100000)"
fill="#000000" stroke="none">
<path d="M4452 2925 c-15 -19 -29 -25 -59 -25 -21 0 -44 5 -49 10 -22 22 -223
23 -375 2 -146 -20 -221 -44 -275 -90 -35 -29 -64 -97 -64 -147 0 -38 3 -45
19 -45 12 0 23 9 27 22 19 62 177 117 290 103 58 -7 57 -6 70 -108 4 -35 12
-61 20 -64 12 -4 13 -64 7 -359 l-6 -354 108 0 108 0 -7 354 c-6 303 -5 354 7
359 10 4 17 29 22 75 8 78 10 83 48 100 42 18 71 15 101 -13 15 -14 30 -25 34
-26 143 -14 161 -7 163 64 3 78 -3 142 -13 155 -7 7 -37 12 -83 12 -67 0 -75
-2 -93 -25z"/>
<path d="M4715 2114 c-139 -19 -230 -78 -273 -177 -16 -38 -15 -140 2 -181 17
-40 74 -99 119 -122 17 -10 93 -34 167 -55 74 -20 147 -42 161 -47 36 -14 69
-59 69 -94 0 -67 -65 -108 -173 -108 -105 1 -179 48 -195 125 l-8 40 -64 1
c-108 1 -110 0 -110 -60 0 -175 231 -299 472 -252 179 35 268 127 268 279 0
150 -67 208 -322 277 -162 44 -202 64 -206 104 -9 77 36 116 135 116 100 0
157 -33 169 -97 l6 -33 95 0 96 0 -5 45 c-16 137 -130 224 -313 238 -33 3 -73
3 -90 1z"/>
<path d="M2980 1601 c0 -359 3 -450 13 -454 7 -3 49 -5 93 -5 l79 0 -2 309
c-1 170 2 309 5 309 4 0 37 -87 74 -193 37 -105 85 -244 108 -307 l40 -115 68
-3 c37 -1 72 1 78 5 6 5 57 144 114 311 57 166 108 298 112 294 5 -5 8 -144 6
-309 l-3 -300 90 1 90 1 3 453 2 452 -138 0 -138 0 -101 -312 c-56 -172 -104
-306 -107 -298 -3 8 -42 121 -85 250 -44 129 -89 263 -101 298 l-22 62 -139 0
-139 0 0 -449z"/>
<path d="M4043 1827 c-4 -7 -9 -151 -11 -322 l-4 -310 27 -25 c24 -23 35 -25
112 -25 80 0 86 1 109 28 24 28 24 29 23 250 -1 122 -4 265 -8 317 l-6 95
-117 2 c-82 1 -120 -2 -125 -10z"/>
<path d="M3153 972 c-23 -15 -34 -62 -21 -89 14 -28 54 -48 63 -33 4 6 -6 15
-20 20 -22 8 -26 15 -23 42 2 22 10 36 25 44 13 6 20 14 16 17 -8 9 -25 9 -40
-1z"/>
<path d="M3314 954 c-14 -20 -15 -33 -8 -62 8 -31 14 -38 39 -40 35 -4 55 18
55 63 0 34 -25 65 -53 65 -9 0 -24 -12 -33 -26z m55 -8 c20 -24 10 -70 -16
-74 -27 -4 -41 35 -23 67 13 25 23 26 39 7z"/>
<path d="M3510 909 c0 -44 4 -68 10 -64 6 3 10 21 11 38 l1 32 14 -32 c22 -51
34 -39 34 32 0 37 -4 65 -10 65 -5 0 -10 -17 -11 -37 l0 -38 -16 38 c-8 20
-19 37 -24 37 -5 0 -9 -32 -9 -71z"/>
<path d="M3702 968 c-17 -17 -15 -35 9 -59 23 -23 19 -52 -6 -43 -8 3 -15 2
-15 -4 0 -18 33 -23 51 -6 20 18 16 37 -14 67 -18 18 -19 21 -4 32 10 7 17 15
17 19 0 10 -25 7 -38 -6z"/>
<path d="M3860 970 c0 -5 4 -10 10 -10 5 0 10 -25 12 -55 2 -30 8 -55 13 -55
6 0 11 25 13 55 2 30 7 55 12 55 6 0 10 5 10 10 0 6 -16 10 -35 10 -19 0 -35
-4 -35 -10z"/>
<path d="M4037 973 c-11 -10 -8 -121 3 -128 6 -3 14 4 18 16 7 19 10 20 15 6
4 -10 14 -17 23 -17 15 0 15 2 -1 26 -13 20 -14 28 -5 40 19 22 4 64 -24 64
-12 0 -26 -3 -29 -7z m43 -39 c0 -8 -4 -14 -10 -14 -5 0 -10 9 -10 21 0 11 5
17 10 14 6 -3 10 -13 10 -21z"/>
<path d="M4217 973 c-12 -11 -7 -89 6 -107 8 -11 23 -17 38 -14 22 3 24 8 27
66 2 36 -1 62 -7 62 -5 0 -11 -23 -13 -52 -4 -74 -28 -77 -28 -4 0 52 -7 66
-23 49z"/>
<path d="M4417 962 c-20 -22 -22 -83 -5 -100 14 -14 58 -16 58 -3 0 5 -10 11
-22 13 -19 2 -23 9 -23 38 0 27 5 37 23 45 12 5 22 13 22 17 0 15 -37 8 -53
-10z"/>
<path d="M4570 970 c0 -5 7 -10 15 -10 12 0 15 -13 15 -55 0 -30 5 -55 10 -55
6 0 10 25 10 55 0 30 5 55 10 55 6 0 10 5 10 10 0 6 -16 10 -35 10 -19 0 -35
-4 -35 -10z"/>
<path d="M4750 915 c0 -37 4 -65 10 -65 6 0 10 28 10 65 0 37 -4 65 -10 65 -6
0 -10 -28 -10 -65z"/>
<path d="M4896 964 c-18 -18 -21 -66 -6 -95 23 -42 90 -8 90 46 0 29 -28 65
-50 65 -10 0 -26 -7 -34 -16z m54 -25 c18 -32 4 -71 -23 -67 -24 3 -32 26 -23
64 8 30 31 31 46 3z"/>
<path d="M5080 915 c0 -51 3 -65 15 -65 10 0 15 10 15 28 l1 27 17 -33 c10
-18 21 -30 25 -26 11 11 8 134 -3 134 -5 0 -10 -17 -11 -37 l-1 -38 -16 37
c-26 59 -42 49 -42 -27z"/>
</g>
</svg>
