<?xml version="1.0" standalone="no"?>
<!DOCTYPE svg PUBLIC "-//W3C//DTD SVG 20010904//EN"
 "http://www.w3.org/TR/2001/REC-SVG-20010904/DTD/svg10.dtd">
<svg version="1.0" xmlns="http://www.w3.org/2000/svg"
 width="847.000000pt" height="580.000000pt" viewBox="0 0 847.000000 580.000000"
 preserveAspectRatio="xMidYMid meet">

<g transform="translate(0.000000,580.000000) scale(0.100000,-0.100000)"
fill="#000000" stroke="none">
<path d="M4694 2070 c-125 -18 -229 -94 -254 -185 -31 -112 6 -215 99 -274 43
-27 173 -72 266 -91 124 -26 184 -97 144 -172 -17 -32 -86 -58 -156 -58 -109
0 -177 43 -198 125 l-11 40 -84 0 -85 0 -3 -53 c-10 -176 225 -306 470 -258
128 25 205 75 244 161 19 40 24 67 24 139 l0 88 -42 40 c-71 65 -124 89 -303
135 -107 27 -184 67 -185 95 0 10 7 35 16 57 19 48 49 61 139 61 85 0 129 -29
155 -102 9 -28 10 -28 100 -28 l90 0 0 26 c0 84 -72 185 -158 222 -47 20 -157
43 -197 41 -11 -1 -43 -5 -71 -9z"/>
<path d="M2980 1600 l0 -450 23 -5 c12 -3 54 -5 92 -3 l70 3 -4 308 c-2 177 0
307 5 307 5 0 56 -136 114 -301 67 -191 111 -304 122 -310 20 -11 119 -12 134
-1 6 4 50 124 99 267 80 234 123 349 125 335 1 -3 3 -140 4 -305 l3 -300 89 0
89 0 3 453 2 452 -138 0 -138 0 -82 -252 c-45 -139 -89 -277 -97 -305 -9 -29
-19 -53 -23 -53 -4 0 -27 62 -51 138 -24 75 -50 151 -57 167 -6 17 -33 92 -59
168 l-48 137 -138 0 -139 0 0 -450z"/>
<path d="M4034 1831 c-2 -2 -4 -147 -4 -321 l0 -317 26 -24 c23 -21 35 -24
109 -24 74 0 86 3 109 24 l26 24 0 206 c0 113 -3 256 -7 318 l-6 112 -124 3
c-69 2 -127 1 -129 -1z"/>
</g>
</svg>
