<?xml version="1.0" encoding="UTF-8"?>
<svg version="1.1" viewBox="0 0 2048 1364" width="563" height="375" xmlns="http://www.w3.org/2000/svg">
<path transform="translate(0)" d="m0 0h2048v1364h-2048z" fill="#1B202C"/>
<path transform="translate(1015,299)" d="m0 0h19l7 2 6 7 1 94v10l1 2 7-1 2-24 4-19 7-21 8-16 4-6 5 1 21 10 12 8 16 13 13 13 11 14 9 15 8 17 6 20 4 20 1 9 4 6 6 7 5 11 1 11h-357l1-10 5-12 9-11 2-13 4-20 6-18 7-16 10-16 11-14 17-17 13-10 19-11 16-7 4 2 11 23 6 18 4 20 2 24h8l1-106 5-6z" fill="#FDB60A"/>
<path transform="translate(851,529)" d="m0 0h75l-2 10v25l4 17 6 15 8 13 9 11 7 7 14 10 19 9 16 4 8 1h19l17-3 12-4 15-8 12-9 10-9 8-11 8-14 5-13 4-18v-25l-1-8h74l1 1v30l-1 12-19 5-10 6-10 9-6 12-3 9v18l4 13 8 13-4 6-12 13-8 8h-2l-2 4-5-1-9-6-14-5h-18l-13 4-11 7-8 9-6 13-3 14-1 1-8 1h-27l-8-1-4-15-7-14-4-5-13-9-10-4-5-1h-16l-13 4-10 6-4 2-10-8-11-10-9-11 2-5 7-12 3-10v-19l-4-11-6-10-4-5-11-8-15-5-8-2-1-1v-32z" fill="#FDB60A"/>
<path transform="translate(826,818)" d="m0 0h28l13 4 11 7 7 10 3 9 1 5v54l-3 12-6 11-7 6-8 4-11 3h-28l-13-4-9-6-6-7-5-12-2-10v-46l2-12 6-12 6-7 10-6z" fill="#FEFEFC"/>
<path transform="translate(600,820)" d="m0 0h27l2 7 13 59 3 13 2-6 16-63 3-10h24l5 18 15 60 1 1 14-64 3-14 1-1h26l-2 10-26 106-2 5h-27l-3-7-16-65-2-3-18 73-1 2h-28l-3-7-19-78-8-32z" fill="#FEFEFC"/>
<path transform="translate(1351,820)" d="m0 0h60l10 2 10 5 6 7 4 10 1 5v17l-3 12-6 9-9 6-2 1 1 4 13 24 10 17v2h-30l-8-14-15-28-1-2h-14l-1 44h-26l-1-1v-119z" fill="#FEFEFD"/>
<path transform="translate(939,820)" d="m0 0h61l10 2 10 5 7 9 3 9 1 6v15l-3 12-6 9-5 4-6 3h-2l10 17 15 27 1 3h-31l-19-37-4-7-15-1v45h-26l-1-1z" fill="#FEFDFA"/>
<path transform="translate(968,529)" d="m0 0h113l2 6 2 11v11l-3 12-5 12-7 9-5 5-8 7-13 6-14 3h-12l-16-4-10-5-11-9-8-10-5-10-3-10-1-7v-10z" fill="#FDB60A"/>
<path transform="translate(1080,820)" d="m0 0h26l1 3v19l-1 29 5-4 10-13 12-15 9-12 5-7h31l-3 5-13 16-10 13-11 14 1 5 13 24 13 23 10 18v3h-30l-14-26-12-22-4 2-10 12-1 33-1 1h-26z" fill="#FEFEFC"/>
<path transform="translate(1218,820)" d="m0 0h83v22l-1 1h-54l-1 25h47l1 3v19l-1 1h-47v27l58 1v22h-84l-1-1z" fill="#FEFEFD"/>
<path transform="translate(839,840)" d="m0 0 13 2 6 4 4 8 1 5v42l-2 9-4 6-8 4-11 1-9-2-6-4-4-7-2-15 1-36 4-10 5-4 4-2z" fill="#1B202C"/>
<path transform="translate(966 1e3)" d="m0 0h15l7 4 4 8v23l-3 8-5 4-5 2h-12l-7-3-4-5-2-7v-20l4-10z" fill="#FEFDF9"/>
<path transform="translate(967,842)" d="m0 0h24l9 3 3 4 1 4v10l-3 7-6 3-5 1h-24v-31z" fill="#1B202C"/>
<path transform="translate(1378,842)" d="m0 0h21l11 2 4 5 1 3v11l-3 7-6 3-6 1h-22l-1-1v-30z" fill="#1B202C"/>
<path transform="translate(1247 1e3)" d="m0 0 7 1v47h-7l-5-6-14-24-2-3-1 33h-7l-1-1v-45l1-1h8l3 3 11 19 5 8 1-30z" fill="#FEFDF8"/>
<path transform="translate(1146 1e3)" d="m0 0 5 1 3 5 14 40v2h-8l-3-5-1-4-3-1h-14l-4 10-7 1-1-4 12-36 4-8z" fill="#FEFDF9"/>
<path transform="translate(1054 1e3)" d="m0 0h15l5 3 5 6 1 6h-8l-4-6-2-1h-9l-3 1-2 9v14l2 8 10 1 5-2 2-4v-5l-8-1-1-4 2-3h16v14l-3 7-6 5-3 1h-13l-6-3-4-5-2-5v-23l3-7 6-5z" fill="#FEFCF7"/>
<path transform="translate(802 1e3)" d="m0 0h15l6 4 3 6-1 4h-6l-5-6h-10l-3 4 2 5 4 2 12 3 6 4 1 2v12l-6 7-5 2h-13l-8-5-2-3v-7h6l5 6 2 1h8l4-3-1-7-4-2-11-2-5-3-3-3-1-3v-8l4-7z" fill="#FEFCF8"/>
<path transform="translate(968,1009)" d="m0 0h10l5 5 1 3v16l-2 8-6 3-9-1-4-5-1-8v-9l2-9z" fill="#1B202C"/>
<path transform="translate(881 1e3)" d="m0 0 4 1 1 1v39h21l1 6-1 1h-29l-1-1v-45z" fill="#FEFBF4"/>
<path transform="translate(1146,1015)" d="m0 0 3 1 4 13v3h-12l1-5 3-11z" fill="#1B202C"/>
</svg>
